{
  "asset": {
    "version": "2.0",
    "generator": "Created using the official Cinema 4D glTF Exporter 1.000x284978"
  },
  "scenes": [
    {
      "nodes": [0, 1]
    }
  ],
  "nodes": [
    {
      "name": "OctaneCamera",
      "camera": 0,
      "translation": [-108.34513854980469, -174.7431640625, 2204.214599609375],
      "rotation": [
        0.050972819328308108, -0.08425802737474442, -0.004315887577831745,
        -0.9951300024986267
      ],
      "scale": [1.0, 1.0, 1.0]
    },
    {
      "name": "Null",
      "children": [2, 3, 4, 5]
    },
    {
      "name": "Connect",
      "mesh": 0
    },
    {
      "name": "EDGE",
      "mesh": 1
    },
    {
      "name": "TENT",
      "mesh": 2
    },
    {
      "name": "Hair.1",
      "mesh": 3
    }
  ],
  "meshes": [
    {
      "name": "Connect",
      "primitives": [
        {
          "indices": 0,
          "attributes": {
            "POSITION": 1,
            "NORMAL": 2,
            "TEXCOORD_0": 3
          },
          "material": 0
        }
      ]
    },
    {
      "name": "EDGE",
      "primitives": [
        {
          "indices": 4,
          "attributes": {
            "POSITION": 5,
            "NORMAL": 6,
            "TEXCOORD_0": 7
          },
          "material": 1
        }
      ]
    },
    {
      "name": "TENT",
      "primitives": [
        {
          "indices": 8,
          "attributes": {
            "POSITION": 9,
            "NORMAL": 10,
            "TEXCOORD_0": 11
          },
          "material": 2
        }
      ]
    },
    {
      "name": "Hair.1",
      "primitives": [
        {
          "indices": 12,
          "attributes": {
            "POSITION": 13,
            "NORMAL": 14,
            "TEXCOORD_0": 15
          },
          "material": 3
        }
      ]
    }
  ],
  "cameras": [
    {
      "type": "perspective",
      "perspective": {
        "znear": 0.009999999776482582,
        "zfar": 10000000000.0,
        "aspectRatio": 1.7777777910232545,
        "yfov": 0.5483348965644836
      }
    }
  ],
  "accessors": [
    {
      "bufferView": 0,
      "type": "SCALAR",
      "componentType": 5123,
      "count": 26166,
      "byteOffset": 0,
      "min": [0],
      "max": [5158]
    },
    {
      "bufferView": 1,
      "type": "VEC3",
      "componentType": 5126,
      "count": 5159,
      "byteOffset": 0,
      "min": [34.11946105957031, 265.0877685546875, -80.00515747070313],
      "max": [167.01426696777345, 391.0182189941406, 68.29064178466797]
    },
    {
      "bufferView": 1,
      "type": "VEC3",
      "componentType": 5126,
      "count": 5159,
      "byteOffset": 12,
      "min": [-0.9997626543045044, -0.998775064945221, -0.9993024468421936],
      "max": [0.9965579509735107, 0.9962549805641174, 0.9999396204948425]
    },
    {
      "bufferView": 1,
      "type": "VEC2",
      "componentType": 5126,
      "count": 5159,
      "byteOffset": 24,
      "min": [0.0058787208981812, 0.0],
      "max": [0.9506314396858215, 1.0]
    },
    {
      "bufferView": 2,
      "type": "SCALAR",
      "componentType": 5123,
      "count": 57600,
      "byteOffset": 0,
      "min": [0],
      "max": [11049]
    },
    {
      "bufferView": 3,
      "type": "VEC3",
      "componentType": 5126,
      "count": 11050,
      "byteOffset": 0,
      "min": [-6.801874160766602, 225.6494140625, -110.36537170410156],
      "max": [152.49244689941407, 335.6656799316406, 90.30944061279297]
    },
    {
      "bufferView": 3,
      "type": "VEC3",
      "componentType": 5126,
      "count": 11050,
      "byteOffset": 12,
      "min": [-0.9999876022338867, -0.9983968734741211, -0.9998854994773865],
      "max": [0.9999878406524658, 0.9983881115913391, 0.9998793005943298]
    },
    {
      "bufferView": 3,
      "type": "VEC2",
      "componentType": 5126,
      "count": 11050,
      "byteOffset": 24,
      "min": [0.0, 0.0],
      "max": [1.0, 1.0]
    },
    {
      "bufferView": 4,
      "type": "SCALAR",
      "componentType": 5123,
      "count": 21330,
      "byteOffset": 0,
      "min": [0],
      "max": [3809]
    },
    {
      "bufferView": 5,
      "type": "VEC3",
      "componentType": 5126,
      "count": 3810,
      "byteOffset": 0,
      "min": [53.46525955200195, 18.512582778930665, -84.67863464355469],
      "max": [182.09530639648438, 336.4263916015625, 44.0135498046875]
    },
    {
      "bufferView": 5,
      "type": "VEC3",
      "componentType": 5126,
      "count": 3810,
      "byteOffset": 12,
      "min": [-0.999994158744812, -0.9966433048248291, -0.9996514916419983],
      "max": [0.9996950030326843, 0.9940529465675354, 0.999597430229187]
    },
    {
      "bufferView": 5,
      "type": "VEC2",
      "componentType": 5126,
      "count": 3810,
      "byteOffset": 24,
      "min": [0.0, 0.0],
      "max": [1.0, 1.0]
    },
    {
      "bufferView": 6,
      "type": "SCALAR",
      "componentType": 5123,
      "count": 108000,
      "byteOffset": 0,
      "min": [0],
      "max": [19064]
    },
    {
      "bufferView": 7,
      "type": "VEC3",
      "componentType": 5126,
      "count": 19065,
      "byteOffset": 0,
      "min": [-8.24068546295166, -106.21481323242188, -125.8236083984375],
      "max": [168.17494201660157, 354.82196044921877, 46.01606369018555]
    },
    {
      "bufferView": 7,
      "type": "VEC3",
      "componentType": 5126,
      "count": 19065,
      "byteOffset": 12,
      "min": [-0.9999088644981384, -0.9996088743209839, -0.9999961853027344],
      "max": [1.0, 0.999618649482727, 0.9999773502349854]
    },
    {
      "bufferView": 7,
      "type": "VEC2",
      "componentType": 5126,
      "count": 19065,
      "byteOffset": 24,
      "min": [0.0, 0.0],
      "max": [1.0, 1.0]
    }
  ],
  "bufferViews": [
    {
      "buffer": 0,
      "byteOffset": 0,
      "byteLength": 52332,
      "target": 34963
    },
    {
      "buffer": 0,
      "byteOffset": 52332,
      "byteLength": 165088,
      "target": 34962,
      "byteStride": 32
    },
    {
      "buffer": 1,
      "byteOffset": 0,
      "byteLength": 115200,
      "target": 34963
    },
    {
      "buffer": 1,
      "byteOffset": 115200,
      "byteLength": 353600,
      "target": 34962,
      "byteStride": 32
    },
    {
      "buffer": 2,
      "byteOffset": 0,
      "byteLength": 42660,
      "target": 34963
    },
    {
      "buffer": 2,
      "byteOffset": 42660,
      "byteLength": 121920,
      "target": 34962,
      "byteStride": 32
    },
    {
      "buffer": 3,
      "byteOffset": 0,
      "byteLength": 216000,
      "target": 34963
    },
    {
      "buffer": 3,
      "byteOffset": 216000,
      "byteLength": 610080,
      "target": 34962,
      "byteStride": 32
    }
  ],
  "buffers": [
    {
      "uri": "data:application/octet-stream;base64,",
      "byteLength": 217420
    },
    {
      "uri": "data:application/octet-stream;base64,",
      "byteLength": 468800
    },
    {
      "uri": "data:application/octet-stream;base64,",
      "byteLength": 164580
    },
    {
      "uri": "data:application/octet-stream;base64,",
      "byteLength": 826080
    }
  ],
  "materials": [
    {
      "pbrMetallicRoughness": {
        "baseColorFactor": [0.6, 0.8, 1.0, 0.4],
        "metallicFactor": 0.0,
        "roughnessFactor": 0.1
      },
      "emissiveFactor": [0.05, 0.1, 0.2],
      "alphaMode": "BLEND",
      "doubleSided": true,
      "name": ""
    },
    {
      "pbrMetallicRoughness": {
        "baseColorFactor": [0.9, 0.6, 0.9, 0.5],
        "metallicFactor": 0.0,
        "roughnessFactor": 0.2
      },
      "emissiveFactor": [0.15, 0.05, 0.1],
      "alphaMode": "BLEND",
      "doubleSided": true,
      "name": ""
    },
    {
      "pbrMetallicRoughness": {
        "baseColorFactor": [0.4, 0.6, 1.0, 0.6],
        "metallicFactor": 0.0,
        "roughnessFactor": 0.15
      },
      "emissiveFactor": [0.02, 0.05, 0.1],
      "alphaMode": "BLEND",
      "doubleSided": true,
      "name": ""
    },
    {
      "pbrMetallicRoughness": {
        "baseColorFactor": [0.9, 0.9, 1.0, 0.3],
        "metallicFactor": 0.0,
        "roughnessFactor": 0.1
      },
      "emissiveFactor": [0.0, 0.0, 0.0],
      "alphaMode": "BLEND",
      "doubleSided": true,
      "name": ""
    }
  ]
}
